<?xml version="1.0" encoding="UTF-8" standalone="no"?>
<!DOCTYPE svg PUBLIC "-//W3C//DTD SVG 1.1//EN" "http://www.w3.org/Graphics/SVG/1.1/DTD/svg11.dtd">
<svg xmlns="http://www.w3.org/2000/svg" xmlns:xlink="http://www.w3.org/1999/xlink" width="450" height="200">
  <marker id="arr1" viewBox="0 0 8 8" refX="7" refY="4" markerUnits="strokeWidth" markerWidth="8" markerHeight="8" orient="auto" fill="none" stroke="black">
    <path d="M 0,0 l 8,4 l -8,4" />
  </marker>
  <marker id="arr2" viewBox="0 0 8 8" refX="7" refY="3" markerUnits="strokeWidth" markerWidth="8" markerHeight="8" orient="auto" fill="blue" stroke="blue">
    <path d="M 0,0 l 8,3 l -8,3" />
  </marker>
  <rect x="50" y="10" rx="20" ry="20" width="350" height="160" style="fill:white;stroke:black;stroke-width:1;" />
  <text x="65" y="35" font-size="13" font-family="Arial,sans-serif" text-anchor="start">Spaghetti kochen</text>
  <rect x="20" y="60" width="60" height="36" style="fill:white;stroke:black;stroke-width:1;" />
  <text x="50" y="75" font-size="11" font-family="Arial,sans-serif" text-anchor="middle">Spaghetti<tspan x="50" y="88">[roh]</tspan></text>
  <rect x="125" y="60" rx="10" ry="10" width="84" height="36" style="fill:white;stroke:black;stroke-width:1;" />
  <text x="167" y="75" font-size="11" font-family="Arial,sans-serif" text-anchor="middle">Spaghetti<tspan x="167" y="88">einfüllen</tspan></text>
  <rect x="125" y="120" rx="10" ry="10" width="84" height="36" style="fill:white;stroke:black;stroke-width:1;" />
  <text x="167" y="141" font-size="11" font-family="Arial,sans-serif" text-anchor="middle">Wasser kochen</text>
  <rect x="260" y="60" rx="10" ry="10" width="84" height="36" style="fill:white;stroke:black;stroke-width:1;" />
  <text x="302" y="75" font-size="11" font-family="Arial,sans-serif" text-anchor="middle">Spaghetti<tspan x="302" y="88">10min kochen</tspan></text>
  <rect x="370" y="60" width="60" height="36" style="fill:white;stroke:black;stroke-width:1;" />
  <text x="400" y="75" font-size="11" font-family="Arial,sans-serif" text-anchor="middle">Spaghetti<tspan x="400" y="88">[al dente]</tspan></text>
  <rect x="208" y="73" rx="1" ry="1" width="10" height="10" style="fill:white;stroke:black;stroke-width:1;" />
  <rect x="251" y="73" rx="1" ry="1" width="10" height="10" style="fill:white;stroke:black;stroke-width:1;" />
  <circle cx="85" cy="143" r="8" style="stroke: none;fill:black;" />
  <polyline points="93,143 124,143" style="fill:none;stroke:black;stroke-width:1;marker-end:url(#arr1);" />
  <polyline points="80,78 124,78" style="fill:none;stroke:black;stroke-width:1;marker-end:url(#arr1);" />
  <polyline points="167,120 167,97" style="fill:none;stroke:black;stroke-width:1;marker-end:url(#arr1);" />
  <polyline points="218,78 250,78" style="fill:none;stroke:black;stroke-width:1;marker-end:url(#arr1);" />
  <polyline points="344,78 369,78" style="fill:none;stroke:black;stroke-width:1;marker-end:url(#arr1);" />
  <text x="130" y="110" font-size="10" font-family="Arial,sans-serif" fill="blue" text-anchor="end">ein Kontrollfluss</text>
  <polyline points="135,108 160,108" style="fill:none;stroke:blue;stroke-width:1;stroke-dasharray:6,2;marker-end:url(#arr2);" />
  <text x="55" y="183" font-size="10" font-family="Arial,sans-serif" fill="blue" text-anchor="middle">ein Startknoten<tspan x="55" y="195">(ein Kontrollknoten)</tspan></text>
  <polyline points="55,175 75,153" style="fill:none;stroke:blue;stroke-width:1;stroke-dasharray:6,2;marker-end:url(#arr2);" />
  <text x="235" y="35" font-size="10" font-family="Arial,sans-serif" fill="blue" text-anchor="middle">ein Objektfluss</text>
  <polyline points="235,40 235,75" style="fill:none;stroke:blue;stroke-width:1;stroke-dasharray:6,2;marker-end:url(#arr2);" />
  <text x="325" y="35" font-size="10" font-family="Arial,sans-serif" fill="blue" text-anchor="middle">eine Aktion</text>
  <polyline points="325,40 302,57" style="fill:none;stroke:blue;stroke-width:1;stroke-dasharray:6,2;marker-end:url(#arr2);" />
  <text x="280" y="130" font-size="10" font-family="Arial,sans-serif" fill="blue" text-anchor="middle">ein Pin<tspan x="280" y="142">(ein Objektknoten)</tspan></text>
  <polyline points="265,120 255,85" style="fill:none;stroke:blue;stroke-width:1;stroke-dasharray:6,2;marker-end:url(#arr2);" />
  <text x="360" y="183" font-size="10" font-family="Arial,sans-serif" fill="blue" text-anchor="middle">ein Aktivitätsparameterknoten<tspan x="360" y="195">(ein Objektknoten)</tspan></text>
  <polyline points="410,170 410,100" style="fill:none;stroke:blue;stroke-width:1;stroke-dasharray:6,2;marker-end:url(#arr2);" />
</svg>
