<?xml version="1.0" encoding="UTF-8" standalone="no"?>
<!DOCTYPE svg PUBLIC "-//W3C//DTD SVG 1.1//EN" "http://www.w3.org/Graphics/SVG/1.1/DTD/svg11.dtd">
<svg xmlns="http://www.w3.org/2000/svg" xmlns:xlink="http://www.w3.org/1999/xlink" width="250" height="180">
  <marker id="arr" viewBox="0 0 10 8" refX="10" refY="4" markerUnits="strokeWidth" markerWidth="10" markerHeight="8" orient="auto" fill="none" stroke="black">
    <path d="M 0,0 l 10,4 l -10,4" />
  </marker>
  <path d="M60,15h130v50h-130v-50l5,-5h130v50l-5,5" fill="white" stroke="black" stroke-width="1" />
  <line x1="190" y1="15" x2="195" y2="10" stroke="black" stroke-width="1" />
  <text x="125" y="43" font-size="12px" font-weight="bold" font-family="Arial,sans-serif" text-decoration="underline" text-anchor="middle">:Applikationsserver1</text>
  <rect x="15" y="120" width="100" height="50" style="fill:white;stroke:black;stroke-width:1;" />
  <text x="65" y="142" font-size="12px" font-family="Arial,sans-serif" text-anchor="middle">&lt;&lt;artifact&gt;&gt;</text>
  <text x="65" y="157" font-size="12px" font-weight="bold" font-family="Arial,sans-serif" text-decoration="underline" text-anchor="middle">Bestellung.jar</text>
  <line x1="65" y1="120" x2="125" y2="65" stroke="black" stroke-width="1" stroke-dasharray="4,2" marker-end="url(#arr)" />
  <text x="90" y="90" font-size="11px" font-family="Arial,sans-serif" text-anchor="end">&lt;&lt;deploy&gt;&gt;</text>
  <path d="M107,125h-5v12h8v-9l-3,-3v3h3" style="fill:white;stroke:black;stroke-width:0.5;" />
  <rect x="135" y="120" width="100" height="50" style="fill:white;stroke:black;stroke-width:1;" />
  <text x="185" y="142" font-size="12px" font-family="Arial,sans-serif" text-anchor="middle">&lt;&lt;artifact&gt;&gt;</text>
  <text x="185" y="157" font-size="12px" font-weight="bold" font-family="Arial,sans-serif" text-decoration="underline" text-anchor="middle">Rechnung.jar</text>
  <line x1="185" y1="120" x2="125" y2="65" stroke="black" stroke-width="1" stroke-dasharray="4,2" marker-end="url(#arr)" />
  <text x="160" y="90" font-size="11px" font-family="Arial,sans-serif" text-anchor="start">&lt;&lt;deploy&gt;&gt;</text>
  <path d="M227,125h-5v12h8v-9l-3,-3v3h3" style="fill:white;stroke:black;stroke-width:0.5;" />
</svg>
